<svg width="42" height="42" viewBox="0 0 42 42" fill="none" xmlns="http://www.w3.org/2000/svg">
<path d="M21 3.78386C26.6072 3.78386 27.2714 3.8052 29.4857 3.90623C31.5332 3.99968 32.6451 4.34179 33.3852 4.62929C34.3653 5.01025 35.065 5.46539 35.7998 6.20021C36.5346 6.93502 36.9898 7.63466 37.3706 8.6148C37.6582 9.35487 38.0003 10.4668 38.0938 12.5142C38.1948 14.7286 38.2161 15.3928 38.2161 21C38.2161 26.6073 38.1948 27.2714 38.0938 29.4858C38.0003 31.5333 37.6582 32.6452 37.3706 33.3853C36.9898 34.3654 36.5346 35.0651 35.7998 35.7999C35.065 36.5347 34.3653 36.9898 33.3852 37.3707C32.6451 37.6583 31.5332 38.0004 29.4857 38.0939C27.2717 38.1949 26.6076 38.2162 21 38.2162C15.3924 38.2162 14.7282 38.1949 12.5142 38.0939C10.4667 38.0004 9.35478 37.6583 8.6148 37.3707C7.63457 36.9898 6.93494 36.5347 6.20012 35.7999C5.46531 35.0651 5.01016 34.3654 4.62929 33.3853C4.3417 32.6452 3.9996 31.5333 3.90615 29.4859C3.80512 27.2714 3.78378 26.6073 3.78378 21C3.78378 15.3928 3.80512 14.7286 3.90615 12.5143C3.9996 10.4668 4.3417 9.35487 4.62929 8.6148C5.01016 7.63466 5.46531 6.93502 6.20012 6.20021C6.93494 5.46539 7.63457 5.01025 8.6148 4.62929C9.35478 4.34179 10.4667 3.99968 12.5141 3.90623C14.7286 3.8052 15.3927 3.78386 21 3.78386ZM21 0C15.2967 0 14.5816 0.0241743 12.3417 0.126373C10.1064 0.228405 8.57996 0.583351 7.24412 1.10251C5.86318 1.63918 4.69206 2.35724 3.52461 3.5247C2.35716 4.69215 1.6391 5.86327 1.10243 7.2442C0.583267 8.58004 0.228322 10.1065 0.12629 12.3418C0.0240909 14.5816 0 15.2967 0 21C0 26.7033 0.0240909 27.4185 0.12629 29.6583C0.228322 31.8936 0.583267 33.42 1.10243 34.7559C1.6391 36.1367 2.35716 37.3079 3.52461 38.4754C4.69206 39.6428 5.86318 40.3609 7.24412 40.8976C8.57996 41.4167 10.1064 41.7717 12.3417 41.8737C14.5816 41.9759 15.2967 42 21 42C26.7033 42 27.4184 41.9759 29.6582 41.8737C31.8935 41.7717 33.42 41.4167 34.7558 40.8976C36.1367 40.3609 37.3079 39.6428 38.4753 38.4754C39.6428 37.3079 40.3608 36.1368 40.8975 34.7559C41.4166 33.42 41.7716 31.8936 41.8736 29.6583C41.9758 27.4185 42 26.7033 42 21C42 15.2967 41.9758 14.5816 41.8736 12.3418C41.7716 10.1065 41.4166 8.58004 40.8975 7.2442C40.3608 5.86327 39.6428 4.69215 38.4753 3.5247C37.3079 2.35724 36.1367 1.63918 34.7558 1.10251C33.42 0.583351 31.8935 0.228405 29.6582 0.126373C27.4184 0.0241743 26.7033 0 21 0ZM21 10.2162C15.0442 10.2162 10.2161 15.0443 10.2161 21C10.2161 26.9558 15.0442 31.7839 21 31.7839C26.9557 31.7839 31.7838 26.9558 31.7838 21C31.7838 15.0443 26.9557 10.2162 21 10.2162ZM21 28.0001C17.134 28.0001 13.9999 24.866 13.9999 21C13.9999 17.1341 17.134 14 21 14C24.8659 14 28 17.1341 28 21C28 24.866 24.8659 28.0001 21 28.0001ZM34.7298 9.79017C34.7298 11.1819 33.6016 12.3102 32.2098 12.3102C30.8181 12.3102 29.6898 11.1819 29.6898 9.79017C29.6898 8.3984 30.8181 7.27021 32.2098 7.27021C33.6016 7.27021 34.7298 8.3984 34.7298 9.79017Z" fill="white"/>
</svg>
