<svg width="57" height="43" viewBox="0 0 57 43" fill="none" xmlns="http://www.w3.org/2000/svg">
<path d="M55.5333 35.275C54.9667 38.25 52.5583 40.5167 49.5833 40.9417C44.9083 41.65 37.1167 42.5 28.3333 42.5C19.6917 42.5 11.9 41.65 7.08333 40.9417C4.10833 40.5167 1.7 38.25 1.13333 35.275C0.566667 32.0167 0 27.2 0 21.25C0 15.3 0.566667 10.4833 1.13333 7.225C1.7 4.25 4.10833 1.98333 7.08333 1.55833C11.7583 0.850001 19.55 0 28.3333 0C37.1167 0 44.7667 0.850001 49.5833 1.55833C52.5583 1.98333 54.9667 4.25 55.5333 7.225C56.1 10.4833 56.8083 15.3 56.8083 21.25C56.6667 27.2 56.1 32.0167 55.5333 35.275Z" fill="white"/>
<path d="M22.6666 31.1666V11.3333L39.6666 21.25L22.6666 31.1666Z" fill="#191919"/>
</svg>
